<svg width="260" height="520" xmlns="http://www.w3.org/2000/svg" xmlns:xlink="http://www.w3.org/1999/xlink" overflow="hidden"><defs><clipPath id="clip0"><path d="M764 100 1024 100 1024 620 764 620Z" fill-rule="evenodd" clip-rule="evenodd"/></clipPath><clipPath id="clip1"><path d="M765 100 1023 100 1023 619 765 619Z" fill-rule="evenodd" clip-rule="evenodd"/></clipPath><clipPath id="clip2"><path d="M765 100 1024 100 1024 619 765 619Z" fill-rule="evenodd" clip-rule="evenodd"/></clipPath><clipPath id="clip3"><path d="M257 100 1024 100 1024 619 257 619Z" fill-rule="evenodd" clip-rule="evenodd"/></clipPath></defs><g clip-path="url(#clip0)" transform="translate(-764 -100)"><g clip-path="url(#clip1)"><g clip-path="url(#clip2)"><g clip-path="url(#clip3)"><path d="M765.51 508.441C765.51 513.516 710.864 517.629 643.455 517.629 576.045 517.629 521.399 513.516 521.399 508.441 521.399 503.366 576.045 499.252 643.455 499.252 710.864 499.252 765.51 503.366 765.51 508.441Z" fill="#E6E6E6" transform="matrix(1 0 -0 1.00195 257.49 100.182)"/><path d="M340.045 332.609C340.084 323.257 332.116 315.607 322.764 315.607L235.982 315.607C226.777 315.607 218.825 323.13 218.717 332.334 218.649 337.637 221.076 342.664 225.27 345.91 226.35 346.714 226.92 348.032 226.767 349.369 226.667 350.115 226.616 350.866 226.616 351.619L226.616 411.646C226.616 420.938 234.149 428.471 243.441 428.471L314.755 428.471C324.047 428.471 331.58 420.938 331.58 411.646L331.58 351.619C331.58 350.961 331.542 350.302 331.465 349.648 331.327 348.33 331.915 347.04 333.001 346.279 337.405 343.116 340.025 338.032 340.045 332.609Z" fill="#3F3D56" transform="matrix(1 0 -0 1.00195 41.7663 -90.2322)"/><path d="M336.287 330.962C335.391 324.224 329.613 319.211 322.816 319.275L235.956 319.275C229.63 319.218 224.114 323.563 222.688 329.726 221.472 335.367 224.038 341.149 229.037 344.032 230.484 344.859 231.187 346.561 230.747 348.168 230.439 349.294 230.283 350.455 230.284 351.622L230.284 411.643C230.285 417.971 234.788 423.403 241.006 424.578 241.81 424.727 242.626 424.803 243.444 424.803L314.758 424.803C315.962 424.805 317.16 424.64 318.318 424.312 323.991 422.716 327.911 417.542 327.912 411.649L327.912 351.616C327.912 350.524 327.776 349.436 327.506 348.377 327.432 348.084 327.394 347.782 327.393 347.48 327.394 346.128 328.14 344.887 329.334 344.252L329.34 344.246C334.177 341.678 336.937 336.4 336.287 330.962Z" fill="#6C63FF" transform="matrix(1 0 -0 1.00195 41.7663 -90.2322)"/><path d="M327.912 357.367 327.912 351.723 318.319 351.723 318.319 319.275 312.675 319.275 312.675 351.723 282.484 351.723 282.484 319.275 276.841 319.275 276.841 351.723 246.65 351.723 246.65 319.275 241.006 319.275 241.006 351.723 230.284 351.723 230.284 357.367 241.006 357.367 241.006 374.296 230.284 374.296 230.284 379.94 241.006 379.94 241.006 396.869 230.284 396.869 230.284 402.513 241.006 402.513 241.006 424.578C241.81 424.727 242.626 424.803 243.444 424.803L246.65 424.803 246.65 402.512 276.841 402.512 276.841 424.803 282.484 424.803 282.484 402.512 312.675 402.512 312.675 424.803 314.758 424.803C315.962 424.805 317.16 424.64 318.318 424.312L318.318 402.512 327.912 402.512 327.912 396.869 318.319 396.869 318.319 379.94 327.912 379.94 327.912 374.296 318.319 374.296 318.319 357.367ZM246.65 357.367 276.841 357.367 276.841 374.296 246.65 374.296ZM246.65 396.869 246.65 379.94 276.841 379.94 276.841 396.869ZM312.675 396.869 282.484 396.869 282.484 379.94 312.675 379.94ZM312.675 374.296 282.484 374.296 282.484 357.367 312.675 357.367Z" fill="#000000" fill-opacity="0.2" transform="matrix(1 0 -0 1.00195 41.7663 -90.2322)"/><path d="M339.649 190.044C339.649 223.33 312.666 250.313 279.38 250.313 246.095 250.313 219.111 223.33 219.111 190.044L339.649 190.044Z" fill="#6C63FF" transform="matrix(1 0 -0 1.00195 41.7663 -90.2322)"/><path d="M241.222 200.743C241.222 202.318 240.663 203.596 239.974 203.596 239.284 203.596 238.725 202.318 238.725 200.743 238.801 199.677 239.242 198.669 239.974 197.89 240.705 198.669 241.146 199.677 241.222 200.743Z" fill="#3F3D56" transform="matrix(1 0 -0 1.00195 41.7663 -90.2322)"/><path d="M304.344 210.728C304.344 212.304 303.785 213.581 303.096 213.581 302.406 213.581 301.847 212.304 301.847 210.728 301.923 209.662 302.364 208.655 303.096 207.875 303.827 208.655 304.268 209.662 304.344 210.728Z" fill="#3F3D56" transform="matrix(1 0 -0 1.00195 41.7663 -90.2322)"/><path d="M257.983 205.022C257.983 206.598 257.424 207.875 256.735 207.875 256.045 207.875 255.487 206.598 255.487 205.022 255.562 203.956 256.003 202.949 256.735 202.169 257.466 202.949 257.907 203.956 257.983 205.022Z" fill="#3F3D56" transform="matrix(1 0 -0 1.00195 41.7663 -90.2322)"/><path d="M282.946 227.489C282.946 229.065 282.388 230.342 281.698 230.342 281.009 230.342 280.45 229.065 280.45 227.489 280.526 226.423 280.967 225.416 281.698 224.636 282.43 225.416 282.871 226.423 282.946 227.489Z" fill="#3F3D56" transform="matrix(1 0 -0 1.00195 41.7663 -90.2322)"/><path d="M256.2 224.636C256.2 226.212 255.641 227.489 254.952 227.489 254.262 227.489 253.703 226.212 253.703 224.636 253.779 223.57 254.22 222.563 254.952 221.784 255.683 222.563 256.124 223.57 256.2 224.636Z" fill="#3F3D56" transform="matrix(1 0 -0 1.00195 41.7663 -90.2322)"/><path d="M318.609 197.89C318.609 199.465 318.05 200.743 317.361 200.743 316.671 200.743 316.112 199.465 316.112 197.89 316.188 196.824 316.629 195.816 317.361 195.037 318.092 195.816 318.533 196.824 318.609 197.89Z" fill="#3F3D56" transform="matrix(1 0 -0 1.00195 41.7663 -90.2322)"/><path d="M295.785 233.195C295.785 234.771 295.226 236.048 294.537 236.048 293.847 236.048 293.289 234.771 293.289 233.195 293.364 232.129 293.805 231.122 294.537 230.342 295.268 231.122 295.709 232.129 295.785 233.195Z" fill="#3F3D56" transform="matrix(1 0 -0 1.00195 41.7663 -90.2322)"/><path d="M279.38 253.701C244.24 253.661 215.763 225.184 215.723 190.044L222.499 190.044C222.499 221.459 247.966 246.925 279.38 246.925 310.795 246.925 336.261 221.459 336.261 190.044L343.037 190.044C342.997 225.184 314.521 253.661 279.38 253.701Z" fill="#3F3D56" transform="matrix(1 0 -0 1.00195 41.7663 -90.2322)"/><path d="M190.335 21.8539 210.284 21.8539 210.284 41.8032 190.335 41.8032Z" fill="#3F3D56" transform="matrix(1 0 -0 1.00195 257.49 100.182)"/><path d="M245.196 30.8311 405.787 30.8311 405.787 32.826 245.196 32.826Z" fill="#3F3D56" transform="matrix(1 0 -0 1.00195 257.49 100.182)"/><path d="M190.335 172.02 210.284 172.02 210.284 191.97 190.335 191.97Z" fill="#3F3D56" transform="matrix(1 0 -0 1.00195 257.49 100.182)"/><path d="M245.196 180.997 405.787 180.997 405.787 182.992 245.196 182.992Z" fill="#3F3D56" transform="matrix(1 0 -0 1.00195 257.49 100.182)"/><path d="M190.335 321.143 210.284 321.143 210.284 341.092 190.335 341.092Z" fill="#3F3D56" transform="matrix(1 0 -0 1.00195 257.49 100.182)"/><path d="M245.196 330.12 405.787 330.12 405.787 332.115 245.196 332.115Z" fill="#3F3D56" transform="matrix(1 0 -0 1.00195 257.49 100.182)"/><path d="M846.444 327.04 820.961 347.126 766.963 328.149C766.963 328.149 748.603 307.498 738.221 322.879 734.665 328.147 757.954 337.879 760.152 338.783 765.644 341.044 818.262 369.911 823.418 366.124 828.574 362.337 857.585 343.181 857.585 343.181Z" fill="#A0616A" transform="matrix(1 0 -0 1.00195 41.7663 -90.2322)"/><path d="M933.433 292.776C909.281 283.751 886.306 279.481 867.678 292.776L867.678 249.868C867.678 231.71 882.398 216.991 900.555 216.991L900.555 216.991C918.713 216.991 933.433 231.71 933.433 249.868Z" fill="#2F2E41" transform="matrix(1 0 -0 1.00195 41.7663 -90.2322)"/><path d="M872.746 386.509 870.772 400.324C870.772 400.324 865.838 415.125 870.772 442.755L791.336 659.354 850.05 676.129 879.16 557.716 920.111 467.425 916.164 570.05 895.442 679.583 956.622 677.116 974.45 489.3C977.333 459.618 972.184 429.706 959.543 402.696 954.597 392.192 949.28 383.914 944.455 382.713 929.979 379.108 872.746 386.509 872.746 386.509Z" fill="#2F2E41" transform="matrix(1 0 -0 1.00195 41.7663 -90.2322)"/><path d="M798.737 657.874 778.508 679.583C778.508 679.583 739.53 699.812 767.16 702.279 794.79 704.746 804.164 693.891 804.164 693.891 804.164 693.891 838.702 691.424 838.208 686.491 837.715 681.557 835.248 665.275 835.248 665.275Z" fill="#2F2E41" transform="matrix(1 0 -0 1.00195 41.7663 -90.2322)"/><path d="M908.517 663.108 908.517 678.404C908.517 678.404 909.01 684.818 908.517 686.298 908.023 687.778 900.622 706.033 925.292 702.086 949.962 698.139 940.094 682.844 940.094 682.844L934.173 660.641Z" fill="#2F2E41" transform="matrix(1 0 -0 1.00195 41.7663 -90.2322)"/><path d="M709.322 65.0994C709.322 78.7921 698.222 89.8923 684.529 89.8923 670.836 89.8923 659.736 78.7921 659.736 65.0994 659.736 51.4066 670.836 40.3065 684.529 40.3065 698.222 40.3065 709.322 51.4066 709.322 65.0994Z" fill="#A0616A" transform="matrix(1 0 -0 1.00195 257.49 100.182)"/><path d="M917.398 268.835C917.398 268.835 913.944 301.399 917.398 307.32 920.851 313.24 882.367 301.399 882.367 301.399 882.367 301.399 890.755 279.196 887.794 270.315 884.834 261.434 917.398 268.835 917.398 268.835Z" fill="#A0616A" transform="matrix(1 0 -0 1.00195 41.7663 -90.2322)"/><path d="M937.133 362.579 945.028 384.289 871.512 392.676C871.512 392.676 863.618 391.196 863.618 384.782 863.618 378.368 855.23 355.672 855.23 355.672 855.23 355.672 834.688 339.022 824.82 334.581 821.243 332.973 826.594 333.637 829.604 326.809 830.507 324.756 831.587 322.59 832.766 320.394 833.728 318.594 834.765 316.768 835.825 314.967 837.113 312.772 838.44 310.611 839.728 308.553 843.626 302.331 847.183 297.101 848.323 294.985 851.777 288.571 884.247 287.998 884.247 287.998 893.532 293.84 920.358 294.985 920.358 294.985 920.358 294.985 938.811 302.706 946.498 308.553 947.055 308.972 937.133 362.579 937.133 362.579Z" fill="#E6E6E6" transform="matrix(1 0 -0 1.00195 41.7663 -90.2322)"/><path d="M921.174 225.381 921.174 224.792 920.474 224.831C912.419 218.697 901.99 216.613 892.197 219.18 896.83 220.405 901.137 222.63 904.816 225.701L881.052 227.021 871.021 249.311 877.81 249.311 883.281 239.28 883.281 249.311 906.239 249.311 907.8 241.509 912.134 249.311 916.645 249.311C916.672 249.867 916.716 250.419 916.716 250.982L912.258 293.89 933.433 284.974 933.433 250.982C933.441 241.031 928.931 231.614 921.173 225.381Z" fill="#2F2E41" transform="matrix(1 0 -0 1.00195 41.7663 -90.2322)"/><path d="M954.402 338.897 952.922 377.875 948.975 453.363C948.975 453.363 954.402 485.927 940.587 485.434 926.772 484.94 937.133 446.949 937.133 446.949L933.186 387.249 937.133 345.311Z" fill="#A0616A" transform="matrix(1 0 -0 1.00195 41.7663 -90.2322)"/><path d="M958.349 360.112C958.349 364.553 933.433 363.319 933.433 363.319L920.358 294.985C920.358 294.985 938.811 302.706 946.498 308.553 948.307 310.43 949.787 312.598 950.874 314.967 951.461 316.551 952.019 318.386 952.547 320.394 953.07 322.388 953.558 324.554 954.017 326.809 956.171 337.806 957.618 348.93 958.349 360.112Z" fill="#E6E6E6" transform="matrix(1 0 -0 1.00195 41.7663 -90.2322)"/><path d="M278.709 518.632 240.943 514.722C241.891 508.169 237.348 502.088 230.794 501.139 224.241 500.191 218.16 504.735 217.212 511.288 216.692 514.88 217.827 518.514 220.3 521.172 215.799 526.033 216.091 533.622 220.952 538.123 225.813 542.623 233.403 542.331 237.903 537.47 240.579 534.58 241.665 530.561 240.81 526.717L278.709 523.233Z" fill="#CCCCCC" transform="matrix(1 0 -0 1.00195 41.7663 -90.2322)"/><path d="M317.113 544.589C331.96 548.24 346.916 537.709 347.69 522.44 347.712 522.017 347.722 521.59 347.723 521.162 347.723 520.733 347.712 520.307 347.69 519.883 346.916 504.614 331.96 494.083 317.113 497.734L266.747 510.119C260.649 510.114 255.7 515.053 255.694 521.151 255.689 527.25 260.628 532.198 266.726 532.204 266.733 532.204 266.74 532.204 266.747 532.204Z" fill="#6C63FF" transform="matrix(1 0 -0 1.00195 41.7663 -90.2322)"/></g></g></g></g></svg>